<?xml version="1.0" standalone="no"?>
<!DOCTYPE svg PUBLIC "-//W3C//DTD SVG 20010904//EN"
 "http://www.w3.org/TR/2001/REC-SVG-20010904/DTD/svg10.dtd">
<svg version="1.0" xmlns="http://www.w3.org/2000/svg"
 width="80.000000pt" height="15.000000pt" viewBox="0 0 80.000000 15.000000"
 preserveAspectRatio="xMidYMid meet">

<g transform="translate(0.000000,15.000000) scale(0.100000,-0.100000)"
fill="#000000" stroke="none">
<path d="M0 75 l0 -75 400 0 400 0 0 75 0 75 -400 0 -400 0 0 -75z m790 0 l0
-65 -390 0 -390 0 0 65 0 65 390 0 390 0 0 -65z"/>
<path d="M63 103 c-10 -29 1 -83 18 -83 5 0 3 12 -3 26 -9 19 -9 33 -1 55 6
16 8 29 3 29 -4 0 -12 -12 -17 -27z"/>
<path d="M178 118 c7 -7 12 -26 12 -43 0 -17 -5 -36 -12 -43 -7 -7 -8 -12 -2
-12 19 0 34 24 34 55 0 31 -15 55 -34 55 -6 0 -5 -5 2 -12z"/>
<path d="M243 101 c8 -22 8 -36 -1 -55 l-12 -26 275 0 275 0 0 55 0 55 -274 0
-274 0 11 -29z m82 -26 c0 -11 -8 -21 -17 -23 -14 -3 -18 3 -18 23 0 20 4 26
18 23 9 -2 17 -12 17 -23z m54 18 c14 10 14 10 5 -3 -6 -8 -13 -20 -15 -27 -2
-7 -10 0 -17 14 -8 19 -9 24 0 15 9 -9 15 -9 27 1z m97 -2 c-18 -7 -18 -8 -2
-14 21 -8 12 -27 -12 -26 -14 0 -14 2 2 8 18 7 18 8 2 14 -21 8 -12 27 12 26
14 0 14 -2 -2 -8z m62 -22 c2 -19 1 -21 -8 -9 -9 13 -11 13 -20 0 -8 -12 -10
-11 -10 6 0 42 33 44 38 3z m-111 5 c-3 -3 -12 -4 -19 -1 -8 3 -5 6 6 6 11 1
17 -2 13 -5z"/>
<path d="M93 84 c-2 -7 -2 -17 1 -23 8 -12 76 -12 76 1 0 5 -4 6 -10 3 -5 -3
-10 0 -10 9 0 8 6 16 13 19 6 2 -5 5 -26 5 -23 0 -40 -5 -44 -14z m31 -15 c-3
-5 -10 -7 -15 -3 -5 3 -7 10 -3 15 3 5 10 7 15 3 5 -3 7 -10 3 -15z"/>
</g>
</svg>
