<?xml version="1.0" standalone="no"?>
<!DOCTYPE svg PUBLIC "-//W3C//DTD SVG 20010904//EN"
 "http://www.w3.org/TR/2001/REC-SVG-20010904/DTD/svg10.dtd">
<svg version="1.0" xmlns="http://www.w3.org/2000/svg"
 width="130.000000pt" height="130.000000pt" viewBox="0 0 130.000000 130.000000"
 preserveAspectRatio="xMidYMid meet">

<g transform="translate(0.000000,130.000000) scale(0.100000,-0.100000)"
fill="#000000" stroke="none">
<path d="M527 1235 c-112 -23 -211 -77 -298 -164 -95 -95 -143 -188 -167 -323
-15 -83 -15 -98 0 -183 23 -137 71 -230 167 -325 76 -75 185 -145 218 -138 11
2 39 62 85 183 l69 180 -23 17 c-85 63 -99 81 -112 145 -17 79 48 180 132 202
133 36 257 -88 221 -221 -10 -40 -53 -91 -108 -128 l-22 -15 69 -180 c46 -121
74 -181 85 -183 34 -7 142 62 218 139 57 56 86 95 112 150 50 104 60 150 60
264 0 114 -10 160 -60 264 -50 104 -160 215 -265 265 -79 38 -199 67 -271 65
-23 0 -72 -7 -110 -14z m228 -50 c108 -23 190 -68 271 -149 81 -81 126 -163
149 -271 18 -88 18 -132 0 -218 -31 -146 -138 -293 -263 -360 l-52 -28 -9 23
c-5 13 -29 77 -54 142 l-46 119 49 46 c154 146 56 394 -155 394 -131 1 -228
-97 -228 -228 0 -74 26 -129 83 -176 l40 -34 -44 -115 c-24 -63 -49 -128 -55
-143 l-11 -28 -52 28 c-29 15 -82 57 -118 93 -243 242 -198 642 93 831 121 79
259 104 402 74z"/>
</g>
</svg>
